{
  "accessors": [
    {
      "bufferView": 2,
      "componentType": 5126,
      "count": 20259,
      "max": [
        0.5963519811630249,
        0.7506449818611145,
        1.9664419889450073
      ],
      "min": [
        -0.2708379924297333,
        -0.6650140285491943,
        -0.0833519995212555
      ],
      "type": "VEC3"
    },
    {
      "bufferView": 2,
      "byteOffset": 243108,
      "componentType": 5126,
      "count": 20259,
      "max": [
        1.0,
        0.9999978542327881,
        1.0
      ],
      "min": [
        -1.0,
        -0.9998310208320618,
        -1.0
      ],
      "type": "VEC3"
    },
    {
      "bufferView": 1,
      "componentType": 5126,
      "count": 20259,
      "max": [
        0.9984549880027771,
        0.9988610148429871
      ],
      "min": [
        0.0015350000467151403,
        -0.0004560000088531524
      ],
      "type": "VEC2"
    },
    {
      "bufferView": 0,
      "componentType": 5125,
      "count": 94563,
      "type": "SCALAR"
    },
    {
      "bufferView": 2,
      "byteOffset": 486216,
      "componentType": 5126,
      "count": 20759,
      "max": [
        0.6008719801902771,
        0.7552449703216553,
        1.9712719917297363
      ],
      "min": [
        -0.2757520079612732,
        -0.6699240207672119,
        -0.08826500177383423
      ],
      "type": "VEC3"
    },
    {
      "bufferView": 2,
      "byteOffset": 735324,
      "componentType": 5126,
      "count": 20759,
      "max": [
        0.9999824166297913,
        0.9999896883964539,
        1.0
      ],
      "min": [
        -1.0,
        -0.9999890327453613,
        -1.0
      ],
      "type": "VEC3"
    },
    {
      "bufferView": 1,
      "byteOffset": 162072,
      "componentType": 5126,
      "count": 20759,
      "max": [
        0.9984549880027771,
        0.9988610148429871
      ],
      "min": [
        0.0015350000467151403,
        -0.0004560000088531524
      ],
      "type": "VEC2"
    },
    {
      "bufferView": 0,
      "byteOffset": 378252,
      "componentType": 5125,
      "count": 94569,
      "type": "SCALAR"
    }
  ],
  "asset": {
    "extras": {
      "author": "Tasha.Lime (https://sketchfab.com/tasha.lime)",
      "license": "CC-BY-NC-4.0 (http://creativecommons.org/licenses/by-nc/4.0/)",
      "source": "https://sketchfab.com/3d-models/sad-toaster-9b158486dfa1490eb9157966321283a0",
      "title": "Sad toaster"
    },
    "generator": "Sketchfab-12.65.0",
    "version": "2.0"
  },
  "bufferViews": [
    {
      "buffer": 0,
      "byteLength": 756528,
      "name": "floatBufferViews",
      "target": 34963
    },
    {
      "buffer": 0,
      "byteLength": 328144,
      "byteOffset": 756528,
      "byteStride": 8,
      "name": "floatBufferViews",
      "target": 34962
    },
    {
      "buffer": 0,
      "byteLength": 984432,
      "byteOffset": 1084672,
      "byteStride": 12,
      "name": "floatBufferViews",
      "target": 34962
    }
  ],
  "buffers": [
    {
      "byteLength": 2069104,
      "uri": "scene.bin"
    }
  ],
  "extensionsRequired": [
    "KHR_materials_pbrSpecularGlossiness"
  ],
  "extensionsUsed": [
    "KHR_materials_pbrSpecularGlossiness"
  ],
  "images": [
    {
      "uri": "textures/Material.001_diffuse.png"
    }
  ],
  "materials": [
    {
      "doubleSided": true,
      "extensions": {
        "KHR_materials_pbrSpecularGlossiness": {
          "diffuseFactor": [
            1.0,
            1.0,
            1.0,
            1.0
          ],
          "diffuseTexture": {
            "index": 0
          },
          "glossinessFactor": 0.4,
          "specularFactor": [
            0.0,
            0.0,
            0.0
          ]
        }
      },
      "name": "Material.001"
    },
    {
      "extensions": {
        "KHR_materials_pbrSpecularGlossiness": {
          "diffuseFactor": [
            1.0,
            1.0,
            1.0,
            1.0
          ],
          "diffuseTexture": {
            "index": 0
          },
          "glossinessFactor": 0.4,
          "specularFactor": [
            0.0,
            0.0,
            0.0
          ]
        }
      },
      "name": "Material.002"
    }
  ],
  "meshes": [
    {
      "name": "Object_0",
      "primitives": [
        {
          "attributes": {
            "NORMAL": 1,
            "POSITION": 0,
            "TEXCOORD_0": 2
          },
          "indices": 3,
          "material": 0,
          "mode": 4
        }
      ]
    },
    {
      "name": "Object_1",
      "primitives": [
        {
          "attributes": {
            "NORMAL": 5,
            "POSITION": 4,
            "TEXCOORD_0": 6
          },
          "indices": 7,
          "material": 1,
          "mode": 4
        }
      ]
    }
  ],
  "nodes": [
    {
      "children": [
        1
      ],
      "matrix": [
        1.0,
        0.0,
        0.0,
        0.0,
        0.0,
        2.220446049250313e-16,
        -1.0,
        0.0,
        0.0,
        1.0,
        2.220446049250313e-16,
        0.0,
        0.0,
        0.0,
        0.0,
        1.0
      ],
      "name": "Sketchfab_model"
    },
    {
      "children": [
        2,
        3
      ],
      "name": "untitled.obj.cleaner.materialmerger.gles"
    },
    {
      "mesh": 0,
      "name": "Object_2"
    },
    {
      "mesh": 1,
      "name": "Object_3"
    }
  ],
  "samplers": [
    {
      "magFilter": 9729,
      "minFilter": 9987,
      "wrapS": 10497,
      "wrapT": 10497
    }
  ],
  "scene": 0,
  "scenes": [
    {
      "name": "Sketchfab_Scene",
      "nodes": [
        0
      ]
    }
  ],
  "textures": [
    {
      "sampler": 0,
      "source": 0
    }
  ]
}
