{
  "accessors": [
    {
      "bufferView": 2,
      "componentType": 5126,
      "count": 2432,
      "max": [
        0.31003978848457336,
        0.31541499495506287,
        0.34751850366592407
      ],
      "min": [
        -0.31003978848457336,
        0.0457766130566597,
        -0.12554800510406494
      ],
      "type": "VEC3"
    },
    {
      "bufferView": 2,
      "byteOffset": 29184,
      "componentType": 5126,
      "count": 2432,
      "max": [
        0.9999747276306152,
        1.0,
        0.9999409914016724
      ],
      "min": [
        -0.9999747276306152,
        -1.0,
        -0.9999409914016724
      ],
      "type": "VEC3"
    },
    {
      "bufferView": 1,
      "componentType": 5126,
      "count": 2432,
      "max": [
        0.9964282512664795,
        0.9862766265869141
      ],
      "min": [
        0.0035717335995286703,
        0.0035717301070690155
      ],
      "type": "VEC2"
    },
    {
      "bufferView": 0,
      "componentType": 5125,
      "count": 3600,
      "type": "SCALAR"
    },
    {
      "bufferView": 2,
      "byteOffset": 58368,
      "componentType": 5126,
      "count": 33918,
      "max": [
        0.3929142653942108,
        1.0789090394973755,
        0.35942983627319336
      ],
      "min": [
        -0.3929142653942108,
        0.30193114280700684,
        -0.3627782464027405
      ],
      "type": "VEC3"
    },
    {
      "bufferView": 2,
      "byteOffset": 465384,
      "componentType": 5126,
      "count": 33918,
      "max": [
        0.9999107718467712,
        0.9998795986175537,
        0.9999929070472717
      ],
      "min": [
        -1.0,
        -0.9999614357948303,
        -0.9999675154685974
      ],
      "type": "VEC3"
    },
    {
      "bufferView": 1,
      "byteOffset": 19456,
      "componentType": 5126,
      "count": 33918,
      "max": [
        1.0,
        0.47238200902938843
      ],
      "min": [
        0.0,
        0.0
      ],
      "type": "VEC2"
    },
    {
      "bufferView": 0,
      "byteOffset": 14400,
      "componentType": 5125,
      "count": 129150,
      "type": "SCALAR"
    },
    {
      "bufferView": 2,
      "byteOffset": 872400,
      "componentType": 5126,
      "count": 65532,
      "max": [
        0.39451324939727783,
        1.014271855354309,
        0.3865746855735779
      ],
      "min": [
        -0.36802414059638977,
        0.2710728645324707,
        -0.369743674993515
      ],
      "type": "VEC3"
    },
    {
      "bufferView": 2,
      "byteOffset": 1658784,
      "componentType": 5126,
      "count": 65532,
      "max": [
        1.0,
        1.0,
        1.0
      ],
      "min": [
        -1.0,
        -1.0,
        -1.0
      ],
      "type": "VEC3"
    },
    {
      "bufferView": 1,
      "byteOffset": 290800,
      "componentType": 5126,
      "count": 65532,
      "max": [
        0.9926016926765442,
        0.9928308725357056
      ],
      "min": [
        0.007169175427407026,
        0.007169175427407026
      ],
      "type": "VEC2"
    },
    {
      "bufferView": 0,
      "byteOffset": 531000,
      "componentType": 5125,
      "count": 343047,
      "type": "SCALAR"
    },
    {
      "bufferView": 2,
      "byteOffset": 2445168,
      "componentType": 5126,
      "count": 65532,
      "max": [
        0.37994426488876343,
        1.0052893161773682,
        0.35099175572395325
      ],
      "min": [
        -0.30162858963012695,
        0.2714032828807831,
        -0.35798168182373047
      ],
      "type": "VEC3"
    },
    {
      "bufferView": 2,
      "byteOffset": 3231552,
      "componentType": 5126,
      "count": 65532,
      "max": [
        1.0,
        0.9999163150787354,
        0.9999993443489075
      ],
      "min": [
        -1.0,
        -0.9999662637710571,
        -0.9752441644668579
      ],
      "type": "VEC3"
    },
    {
      "bufferView": 1,
      "byteOffset": 815056,
      "componentType": 5126,
      "count": 65532,
      "max": [
        0.985792338848114,
        0.9853318929672241
      ],
      "min": [
        0.007169175427407026,
        0.007169175427407026
      ],
      "type": "VEC2"
    },
    {
      "bufferView": 0,
      "byteOffset": 1903188,
      "componentType": 5125,
      "count": 329046,
      "type": "SCALAR"
    },
    {
      "bufferView": 2,
      "byteOffset": 4017936,
      "componentType": 5126,
      "count": 20234,
      "max": [
        0.37522393465042114,
        1.0141866207122803,
        0.3547442853450775
      ],
      "min": [
        -0.39451324939727783,
        0.2710728645324707,
        -0.3559357225894928
      ],
      "type": "VEC3"
    },
    {
      "bufferView": 2,
      "byteOffset": 4260744,
      "componentType": 5126,
      "count": 20234,
      "max": [
        1.0,
        0.9999499917030334,
        0.9999989867210388
      ],
      "min": [
        -1.0,
        -0.9999970197677612,
        -0.9996165633201599
      ],
      "type": "VEC3"
    },
    {
      "bufferView": 1,
      "byteOffset": 1339312,
      "componentType": 5126,
      "count": 20234,
      "max": [
        0.9920147061347961,
        0.9927972555160522
      ],
      "min": [
        0.007169175427407026,
        0.008566215634346008
      ],
      "type": "VEC2"
    },
    {
      "bufferView": 0,
      "byteOffset": 3219372,
      "componentType": 5125,
      "count": 89865,
      "type": "SCALAR"
    }
  ],
  "asset": {
    "extras": {
      "author": "TinkoD (https://sketchfab.com/tinkod)",
      "license": "CC-BY-4.0 (http://creativecommons.org/licenses/by/4.0/)",
      "source": "https://sketchfab.com/3d-models/churchill-club-chair-d5cd56a729d54dcfb8f0f452ceabb4b8",
      "title": "Churchill club chair"
    },
    "generator": "Sketchfab-15.22.0",
    "version": "2.0"
  },
  "bufferViews": [
    {
      "buffer": 0,
      "byteLength": 3578832,
      "name": "floatBufferViews",
      "target": 34963
    },
    {
      "buffer": 0,
      "byteLength": 1501184,
      "byteOffset": 3578832,
      "byteStride": 8,
      "name": "floatBufferViews",
      "target": 34962
    },
    {
      "buffer": 0,
      "byteLength": 4503552,
      "byteOffset": 5080016,
      "byteStride": 12,
      "name": "floatBufferViews",
      "target": 34962
    }
  ],
  "buffers": [
    {
      "byteLength": 9583568,
      "uri": "scene.bin"
    }
  ],
  "extensionsUsed": [
    "KHR_texture_transform"
  ],
  "images": [
    {
      "uri": "textures/letaher_baseColor.jpeg"
    },
    {
      "uri": "textures/letaher_metallicRoughness.png"
    }
  ],
  "materials": [
    {
      "doubleSided": true,
      "name": "dark_brown_legs",
      "pbrMetallicRoughness": {
        "baseColorFactor": [
          0.0352178,
          0.0272476,
          0.0240416,
          1.0
        ],
        "metallicFactor": 0.0,
        "roughnessFactor": 0.114173
      }
    },
    {
      "doubleSided": true,
      "name": "metalic_buttons",
      "pbrMetallicRoughness": {
        "baseColorFactor": [
          0.0946239,
          0.0946239,
          0.0946239,
          1.0
        ],
        "roughnessFactor": 0.5
      }
    },
    {
      "doubleSided": true,
      "name": "letaher",
      "pbrMetallicRoughness": {
        "baseColorTexture": {
          "extensions": {
            "KHR_texture_transform": {
              "scale": [
                10.000000000000007,
                10.000000000000007
              ]
            }
          },
          "index": 0
        },
        "metallicFactor": 0.0,
        "metallicRoughnessTexture": {
          "index": 1
        },
        "roughnessFactor": 0.6384781363143202
      }
    }
  ],
  "meshes": [
    {
      "name": "Object_0",
      "primitives": [
        {
          "attributes": {
            "NORMAL": 1,
            "POSITION": 0,
            "TEXCOORD_0": 2
          },
          "indices": 3,
          "material": 0,
          "mode": 4
        }
      ]
    },
    {
      "name": "Object_1",
      "primitives": [
        {
          "attributes": {
            "NORMAL": 5,
            "POSITION": 4,
            "TEXCOORD_0": 6
          },
          "indices": 7,
          "material": 1,
          "mode": 4
        }
      ]
    },
    {
      "name": "Object_2",
      "primitives": [
        {
          "attributes": {
            "NORMAL": 9,
            "POSITION": 8,
            "TEXCOORD_0": 10
          },
          "indices": 11,
          "material": 2,
          "mode": 4
        }
      ]
    },
    {
      "name": "Object_3",
      "primitives": [
        {
          "attributes": {
            "NORMAL": 13,
            "POSITION": 12,
            "TEXCOORD_0": 14
          },
          "indices": 15,
          "material": 2,
          "mode": 4
        }
      ]
    },
    {
      "name": "Object_4",
      "primitives": [
        {
          "attributes": {
            "NORMAL": 17,
            "POSITION": 16,
            "TEXCOORD_0": 18
          },
          "indices": 19,
          "material": 2,
          "mode": 4
        }
      ]
    }
  ],
  "nodes": [
    {
      "children": [
        1
      ],
      "matrix": [
        1.0,
        0.0,
        0.0,
        0.0,
        0.0,
        2.220446049250313e-16,
        -1.0,
        0.0,
        0.0,
        1.0,
        2.220446049250313e-16,
        0.0,
        0.0,
        0.0,
        0.0,
        1.0
      ],
      "name": "Sketchfab_model"
    },
    {
      "children": [
        2
      ],
      "name": "root"
    },
    {
      "children": [
        3,
        5,
        7
      ],
      "matrix": [
        1.0,
        0.0,
        0.0,
        0.0,
        0.0,
        2.220446049250313e-16,
        1.0,
        0.0,
        0.0,
        -1.0,
        2.220446049250313e-16,
        0.0,
        0.0,
        0.0,
        0.0,
        1.0
      ],
      "name": "GLTF_SceneRootNode"
    },
    {
      "children": [
        4
      ],
      "name": "legs_0"
    },
    {
      "mesh": 0,
      "name": "Object_4"
    },
    {
      "children": [
        6
      ],
      "name": "buttons_1"
    },
    {
      "mesh": 1,
      "name": "Object_6"
    },
    {
      "children": [
        8,
        9,
        10
      ],
      "matrix": [
        1.0,
        0.0,
        0.0,
        0.0,
        0.0,
        1.1072149276733398,
        0.0,
        0.0,
        0.0,
        0.0,
        1.0,
        0.0,
        0.0,
        0.0,
        0.0,
        1.0
      ],
      "name": "body_2"
    },
    {
      "mesh": 2,
      "name": "Object_8"
    },
    {
      "mesh": 3,
      "name": "Object_9"
    },
    {
      "mesh": 4,
      "name": "Object_10"
    }
  ],
  "samplers": [
    {
      "magFilter": 9729,
      "minFilter": 9987,
      "wrapS": 10497,
      "wrapT": 10497
    }
  ],
  "scene": 0,
  "scenes": [
    {
      "name": "Sketchfab_Scene",
      "nodes": [
        0
      ]
    }
  ],
  "textures": [
    {
      "sampler": 0,
      "source": 0
    },
    {
      "sampler": 0,
      "source": 1
    }
  ]
}
