{
  "accessors": [
    {
      "bufferView": 2,
      "componentType": 5126,
      "count": 2879,
      "max": [
        0.8031096458435059,
        0.9486207962036133,
        0.7761441469192505
      ],
      "min": [
        -0.9380182027816772,
        -0.9422752261161804,
        -0.929572582244873
      ],
      "type": "VEC3"
    },
    {
      "bufferView": 2,
      "byteOffset": 34548,
      "componentType": 5126,
      "count": 2879,
      "max": [
        0.9914298057556152,
        0.9986201524734497,
        1.0
      ],
      "min": [
        -0.9914297461509705,
        -0.998528242111206,
        -1.0
      ],
      "type": "VEC3"
    },
    {
      "bufferView": 1,
      "componentType": 5126,
      "count": 2879,
      "max": [
        0.9990401268005371,
        0.9982823133468628
      ],
      "min": [
        0.0009598067845217884,
        0.0009598067845217884
      ],
      "type": "VEC2"
    },
    {
      "bufferView": 0,
      "componentType": 5125,
      "count": 7344,
      "type": "SCALAR"
    },
    {
      "bufferView": 2,
      "byteOffset": 69096,
      "componentType": 5126,
      "count": 4404,
      "max": [
        0.52055424451828,
        0.43321502208709717,
        2.4478373527526855
      ],
      "min": [
        -0.5307188630104065,
        -1.039588212966919,
        -0.8077706098556519
      ],
      "type": "VEC3"
    },
    {
      "bufferView": 2,
      "byteOffset": 121944,
      "componentType": 5126,
      "count": 4404,
      "max": [
        0.9999786615371704,
        0.9982864260673523,
        1.0
      ],
      "min": [
        -0.999662458896637,
        -0.9989974498748779,
        -1.0
      ],
      "type": "VEC3"
    },
    {
      "bufferView": 1,
      "byteOffset": 23032,
      "componentType": 5126,
      "count": 4404,
      "max": [
        0.998638391494751,
        0.9982919692993164
      ],
      "min": [
        0.0009598067845217884,
        0.0009598067845217884
      ],
      "type": "VEC2"
    },
    {
      "bufferView": 0,
      "byteOffset": 29376,
      "componentType": 5125,
      "count": 12288,
      "type": "SCALAR"
    },
    {
      "bufferView": 2,
      "byteOffset": 174792,
      "componentType": 5126,
      "count": 6807,
      "max": [
        1.2976943254470825,
        4.193694591522217,
        2.3407931327819824
      ],
      "min": [
        -1.908669114112854,
        -1.2175266742706299,
        -0.032003507018089294
      ],
      "type": "VEC3"
    },
    {
      "bufferView": 2,
      "byteOffset": 256476,
      "componentType": 5126,
      "count": 6807,
      "max": [
        0.999954104423523,
        0.9995124936103821,
        1.0
      ],
      "min": [
        -0.9999540448188782,
        -0.998903214931488,
        -1.0
      ],
      "type": "VEC3"
    },
    {
      "bufferView": 1,
      "byteOffset": 58264,
      "componentType": 5126,
      "count": 6807,
      "max": [
        1.0,
        1.0
      ],
      "min": [
        0.0,
        0.0
      ],
      "type": "VEC2"
    },
    {
      "bufferView": 0,
      "byteOffset": 78528,
      "componentType": 5125,
      "count": 14730,
      "type": "SCALAR"
    },
    {
      "bufferView": 2,
      "byteOffset": 338160,
      "componentType": 5126,
      "count": 11440,
      "max": [
        1.111809253692627,
        2.091813564300537,
        4.429386615753174
      ],
      "min": [
        -2.2183783054351807,
        -3.5708086490631104,
        -0.01696200668811798
      ],
      "type": "VEC3"
    },
    {
      "bufferView": 2,
      "byteOffset": 475440,
      "componentType": 5126,
      "count": 11440,
      "max": [
        1.0,
        1.0,
        1.0
      ],
      "min": [
        -1.0,
        -1.0,
        -1.0
      ],
      "type": "VEC3"
    },
    {
      "bufferView": 1,
      "byteOffset": 112720,
      "componentType": 5126,
      "count": 11440,
      "max": [
        1.0,
        0.9999999403953552
      ],
      "min": [
        0.0,
        0.0
      ],
      "type": "VEC2"
    },
    {
      "bufferView": 0,
      "byteOffset": 137448,
      "componentType": 5125,
      "count": 30288,
      "type": "SCALAR"
    },
    {
      "bufferView": 2,
      "byteOffset": 612720,
      "componentType": 5126,
      "count": 884,
      "max": [
        2.210076093673706,
        2.5220537185668945,
        0.14911818504333496
      ],
      "min": [
        -2.1996781826019287,
        -3.989884376525879,
        -4.249431610107422
      ],
      "type": "VEC3"
    },
    {
      "bufferView": 2,
      "byteOffset": 623328,
      "componentType": 5126,
      "count": 884,
      "max": [
        1.0,
        0.998272716999054,
        1.0
      ],
      "min": [
        -1.0,
        -0.9735532999038696,
        -1.0
      ],
      "type": "VEC3"
    },
    {
      "bufferView": 1,
      "byteOffset": 204240,
      "componentType": 5126,
      "count": 884,
      "max": [
        1.0,
        1.0
      ],
      "min": [
        0.0,
        0.0
      ],
      "type": "VEC2"
    },
    {
      "bufferView": 0,
      "byteOffset": 258600,
      "componentType": 5125,
      "count": 1458,
      "type": "SCALAR"
    },
    {
      "bufferView": 2,
      "byteOffset": 633936,
      "componentType": 5126,
      "count": 1471,
      "max": [
        1.4342219829559326,
        2.9992682933807373,
        3.885026454925537
      ],
      "min": [
        -1.6748223304748535,
        -1.282001256942749,
        -0.02656400203704834
      ],
      "type": "VEC3"
    },
    {
      "bufferView": 2,
      "byteOffset": 651588,
      "componentType": 5126,
      "count": 1471,
      "max": [
        0.9979430437088013,
        0.976382315158844,
        1.0
      ],
      "min": [
        -0.9979429244995117,
        -0.999847412109375,
        -1.0
      ],
      "type": "VEC3"
    },
    {
      "bufferView": 1,
      "byteOffset": 211312,
      "componentType": 5126,
      "count": 1471,
      "max": [
        1.0,
        1.0
      ],
      "min": [
        0.0,
        0.0
      ],
      "type": "VEC2"
    },
    {
      "bufferView": 0,
      "byteOffset": 264432,
      "componentType": 5125,
      "count": 4692,
      "type": "SCALAR"
    },
    {
      "bufferView": 2,
      "byteOffset": 669240,
      "componentType": 5126,
      "count": 2879,
      "max": [
        0.8031096458435059,
        0.9486207962036133,
        0.8989887833595276
      ],
      "min": [
        -0.4650934338569641,
        -0.9422752261161804,
        -0.929572582244873
      ],
      "type": "VEC3"
    },
    {
      "bufferView": 2,
      "byteOffset": 703788,
      "componentType": 5126,
      "count": 2879,
      "max": [
        0.9991385340690613,
        0.9986201524734497,
        1.0
      ],
      "min": [
        -0.999415397644043,
        -0.998528242111206,
        -1.0
      ],
      "type": "VEC3"
    },
    {
      "bufferView": 1,
      "byteOffset": 223080,
      "componentType": 5126,
      "count": 2879,
      "max": [
        0.9990401268005371,
        0.9982823133468628
      ],
      "min": [
        0.0009598067845217884,
        0.0009598067845217884
      ],
      "type": "VEC2"
    },
    {
      "bufferView": 0,
      "byteOffset": 283200,
      "componentType": 5125,
      "count": 7344,
      "type": "SCALAR"
    }
  ],
  "asset": {
    "extras": {
      "author": "RitaMirgo (https://sketchfab.com/ritata026)",
      "license": "CC-BY-4.0 (http://creativecommons.org/licenses/by/4.0/)",
      "source": "https://sketchfab.com/3d-models/room-maru-b6b278fe02594da4b869e1c38d58c3fe",
      "title": "Room (Maru)"
    },
    "generator": "Sketchfab-12.68.0",
    "version": "2.0"
  },
  "bufferViews": [
    {
      "buffer": 0,
      "byteLength": 312576,
      "name": "floatBufferViews",
      "target": 34963
    },
    {
      "buffer": 0,
      "byteLength": 246112,
      "byteOffset": 312576,
      "byteStride": 8,
      "name": "floatBufferViews",
      "target": 34962
    },
    {
      "buffer": 0,
      "byteLength": 738336,
      "byteOffset": 558688,
      "byteStride": 12,
      "name": "floatBufferViews",
      "target": 34962
    }
  ],
  "buffers": [
    {
      "byteLength": 1297024,
      "uri": "scene.bin"
    }
  ],
  "images": [
    {
      "uri": "textures/flowers.000_baseColor.png"
    },
    {
      "uri": "textures/Furniture_baseColor.png"
    },
    {
      "uri": "textures/decor_set_baseColor.png"
    },
    {
      "uri": "textures/room_baseColor.png"
    },
    {
      "uri": "textures/material_baseColor.png"
    }
  ],
  "materials": [
    {
      "doubleSided": true,
      "emissiveFactor": [
        1.0,
        1.0,
        1.0
      ],
      "emissiveTexture": {
        "index": 0
      },
      "name": "flowers.000",
      "pbrMetallicRoughness": {
        "baseColorTexture": {
          "index": 0
        },
        "metallicFactor": 0.0,
        "roughnessFactor": 0.8211145618
      }
    },
    {
      "doubleSided": true,
      "emissiveFactor": [
        1.0,
        1.0,
        1.0
      ],
      "emissiveTexture": {
        "index": 1
      },
      "name": "Furniture",
      "pbrMetallicRoughness": {
        "baseColorTexture": {
          "index": 1
        },
        "metallicFactor": 0.0,
        "roughnessFactor": 0.8040408206
      }
    },
    {
      "doubleSided": true,
      "emissiveFactor": [
        1.0,
        1.0,
        1.0
      ],
      "emissiveTexture": {
        "index": 2
      },
      "name": "decor_set",
      "pbrMetallicRoughness": {
        "baseColorTexture": {
          "index": 2
        },
        "metallicFactor": 0.0,
        "roughnessFactor": 0.8211145618
      }
    },
    {
      "doubleSided": true,
      "emissiveFactor": [
        1.0,
        1.0,
        1.0
      ],
      "emissiveTexture": {
        "index": 3
      },
      "name": "room",
      "pbrMetallicRoughness": {
        "baseColorTexture": {
          "index": 3
        },
        "metallicFactor": 0.0,
        "roughnessFactor": 0.8211145618
      }
    },
    {
      "doubleSided": true,
      "emissiveFactor": [
        0.6843205062987161,
        0.6843205062987161,
        0.6843205062987161
      ],
      "emissiveTexture": {
        "index": 4
      },
      "name": "material",
      "pbrMetallicRoughness": {
        "baseColorTexture": {
          "index": 4
        },
        "metallicFactor": 0.0,
        "roughnessFactor": 0.8040408206
      }
    }
  ],
  "meshes": [
    {
      "name": "Cylinder.008_flowers.000_0",
      "primitives": [
        {
          "attributes": {
            "NORMAL": 1,
            "POSITION": 0,
            "TEXCOORD_0": 2
          },
          "indices": 3,
          "material": 0,
          "mode": 4
        }
      ]
    },
    {
      "name": "Snake Plant.003_flowers.000_0",
      "primitives": [
        {
          "attributes": {
            "NORMAL": 5,
            "POSITION": 4,
            "TEXCOORD_0": 6
          },
          "indices": 7,
          "material": 0,
          "mode": 4
        }
      ]
    },
    {
      "name": "Cylinder_Furniture_0",
      "primitives": [
        {
          "attributes": {
            "NORMAL": 9,
            "POSITION": 8,
            "TEXCOORD_0": 10
          },
          "indices": 11,
          "material": 1,
          "mode": 4
        }
      ]
    },
    {
      "name": "prop_book_03_inst_002_decor_set_0",
      "primitives": [
        {
          "attributes": {
            "NORMAL": 13,
            "POSITION": 12,
            "TEXCOORD_0": 14
          },
          "indices": 15,
          "material": 2,
          "mode": 4
        }
      ]
    },
    {
      "name": "Cube.006_room_0",
      "primitives": [
        {
          "attributes": {
            "NORMAL": 17,
            "POSITION": 16,
            "TEXCOORD_0": 18
          },
          "indices": 19,
          "material": 3,
          "mode": 4
        }
      ]
    },
    {
      "name": "Cylinder.004_sf_0",
      "primitives": [
        {
          "attributes": {
            "NORMAL": 21,
            "POSITION": 20,
            "TEXCOORD_0": 22
          },
          "indices": 23,
          "material": 4,
          "mode": 4
        }
      ]
    },
    {
      "name": "Cylinder.001_flowers.000_0",
      "primitives": [
        {
          "attributes": {
            "NORMAL": 25,
            "POSITION": 24,
            "TEXCOORD_0": 26
          },
          "indices": 27,
          "material": 0,
          "mode": 4
        }
      ]
    }
  ],
  "nodes": [
    {
      "children": [
        1
      ],
      "matrix": [
        1.0,
        0.0,
        0.0,
        0.0,
        0.0,
        2.220446049250313e-16,
        -1.0,
        0.0,
        0.0,
        1.0,
        2.220446049250313e-16,
        0.0,
        0.0,
        0.0,
        0.0,
        1.0
      ],
      "name": "Sketchfab_model"
    },
    {
      "children": [
        2
      ],
      "matrix": [
        1.0,
        0.0,
        0.0,
        0.0,
        0.0,
        0.0,
        1.0,
        0.0,
        0.0,
        -1.0,
        0.0,
        0.0,
        0.0,
        0.0,
        0.0,
        1.0
      ],
      "name": "set.fbx"
    },
    {
      "children": [
        3,
        5,
        7,
        9,
        11,
        13,
        15
      ],
      "name": "RootNode"
    },
    {
      "children": [
        4
      ],
      "matrix": [
        100.0,
        0.0,
        0.0,
        0.0,
        0.0,
        -1.629206793918314e-05,
        -99.99999999999868,
        0.0,
        0.0,
        99.99999999999868,
        -1.629206793918314e-05,
        0.0,
        160.935302734375,
        93.8853759765625,
        298.59033203125,
        1.0
      ],
      "name": "Cylinder.008"
    },
    {
      "mesh": 0,
      "name": "Cylinder.008_flowers.000_0"
    },
    {
      "children": [
        6
      ],
      "matrix": [
        100.0,
        0.0,
        0.0,
        0.0,
        -0.0,
        -1.629206793918314e-05,
        -99.99999999999868,
        0.0,
        0.0,
        99.99999999999868,
        -1.629206793918314e-05,
        0.0,
        -168.2015838623047,
        80.63056182861328,
        37.395816802978516,
        1.0
      ],
      "name": "Snake Plant.003"
    },
    {
      "mesh": 1,
      "name": "Snake Plant.003_flowers.000_0"
    },
    {
      "children": [
        8
      ],
      "matrix": [
        100.0,
        0.0,
        0.0,
        0.0,
        0.0,
        -1.629206793918314e-05,
        -99.99999999999868,
        0.0,
        0.0,
        99.99999999999868,
        -1.629206793918314e-05,
        0.0,
        0.0,
        3.8284223079681396,
        247.83990478515625,
        1.0
      ],
      "name": "Cylinder"
    },
    {
      "mesh": 2,
      "name": "Cylinder_Furniture_0"
    },
    {
      "children": [
        10
      ],
      "matrix": [
        100.0,
        0.0,
        0.0,
        0.0,
        0.0,
        -1.629206793918314e-05,
        -99.99999999999868,
        0.0,
        0.0,
        99.99999999999868,
        -1.629206793918314e-05,
        0.0,
        0.0,
        0.0,
        0.0,
        1.0
      ],
      "name": "prop_book_03_inst_002"
    },
    {
      "mesh": 3,
      "name": "prop_book_03_inst_002_decor_set_0"
    },
    {
      "children": [
        12
      ],
      "matrix": [
        100.0,
        0.0,
        0.0,
        0.0,
        0.0,
        -1.629206793918314e-05,
        -99.99999999999868,
        0.0,
        0.0,
        99.99999999999868,
        -1.629206793918314e-05,
        0.0,
        0.0,
        425.72613525390625,
        0.0,
        1.0
      ],
      "name": "Cube.006"
    },
    {
      "mesh": 4,
      "name": "Cube.006_room_0"
    },
    {
      "children": [
        14
      ],
      "matrix": [
        100.0,
        0.0,
        0.0,
        0.0,
        0.0,
        -1.629206793918314e-05,
        -99.99999999999868,
        0.0,
        0.0,
        99.99999999999868,
        -1.629206793918314e-05,
        0.0,
        43.738155364990234,
        5.048553466796875,
        63.30265808105469,
        1.0
      ],
      "name": "Cylinder.004"
    },
    {
      "mesh": 5,
      "name": "Cylinder.004_sf_0"
    },
    {
      "children": [
        16
      ],
      "matrix": [
        26.996325928514654,
        9.524583101112438e-15,
        81.43151248898953,
        0.0,
        81.43151248898627,
        -2.420387869149173e-05,
        -26.9963259285136,
        0.0,
        2.2974272157494858e-05,
        85.78982543944973,
        -7.616473298830144e-06,
        0.0,
        160.935302734375,
        80.27794647216797,
        -167.7698516845703,
        1.0
      ],
      "name": "Cylinder.001"
    },
    {
      "mesh": 6,
      "name": "Cylinder.001_flowers.000_0"
    }
  ],
  "samplers": [
    {
      "magFilter": 9729,
      "minFilter": 9987,
      "wrapS": 10497,
      "wrapT": 10497
    }
  ],
  "scene": 0,
  "scenes": [
    {
      "name": "Sketchfab_Scene",
      "nodes": [
        0
      ]
    }
  ],
  "textures": [
    {
      "sampler": 0,
      "source": 0
    },
    {
      "sampler": 0,
      "source": 1
    },
    {
      "sampler": 0,
      "source": 2
    },
    {
      "sampler": 0,
      "source": 3
    },
    {
      "sampler": 0,
      "source": 4
    }
  ]
}
